<svg height="207.772469" viewBox="0 0 48.289452 21.01784" width="481.29572" xmlns="http://www.w3.org/2000/svg" xmlns:xlink="http://www.w3.org/1999/xlink"><clipPath id="a"><path d="m1030 65h34v33.433594h-34zm0 0"/></clipPath><clipPath id="b"><path d="m1115 72h27.2695v26.433594h-27.2695zm0 0"/></clipPath><clipPath id="c"><path d="m1006 39h29v27h-29zm0 0"/></clipPath><clipPath id="d"><path d="m1025.7305 39.859375-4.8399 15.050781h-14.3906c-.3516 0-.5.453125-.2109.660157l13.0507 9.480468c.01.0078.02 0 .016-.01172l-4.3086-6.984375h8.4297l2.6015-8.214844 2.6367 8.308594c1.4532-1.136719 4.3243-2.707032 5.7461-3.21875.012-.0039.01-.01953 0-.01953h-3.2031l-4.832-15.050781c-.055-.167969-.2031-.253906-.3477-.253906-.1445 0-.2929.08594-.3476.253906"/></clipPath><radialGradient id="e" cx="0" cy="0" gradientTransform="matrix(.589233 .807963 .807963 -.589233 1019.8209 53.033662)" gradientUnits="userSpaceOnUse" r="14.764739"><stop offset="0" stop-color="#ffe7af"/><stop offset=".00390625" stop-color="#ffe6ae"/><stop offset=".0078125" stop-color="#ffe5ac"/><stop offset=".0117188" stop-color="#ffe4ab"/><stop offset=".015625" stop-color="#ffe3a9"/><stop offset=".0195313" stop-color="#ffe2a8"/><stop offset=".0234375" stop-color="#ffe1a6"/><stop offset=".0273438" stop-color="#ffe0a5"/><stop offset=".03125" stop-color="#ffe0a3"/><stop offset=".0351563" stop-color="#ffdfa2"/><stop offset=".0390625" stop-color="#fedea0"/><stop offset=".0429688" stop-color="#fedd9e"/><stop offset=".046875" stop-color="#fedc9d"/><stop offset=".0507813" stop-color="#fedb9b"/><stop offset=".0546875" stop-color="#feda9a"/><stop offset=".0585938" stop-color="#feda99"/><stop offset=".0625" stop-color="#fed998"/><stop offset=".0664063" stop-color="#fed896"/><stop offset=".0703125" stop-color="#fed795"/><stop offset=".0742188" stop-color="#fed693"/><stop offset=".078125" stop-color="#fed592"/><stop offset=".0820313" stop-color="#fed490"/><stop offset=".0859375" stop-color="#fdd38f"/><stop offset=".0898438" stop-color="#fdd38d"/><stop offset=".09375" stop-color="#fdd28c"/><stop offset=".0976563" stop-color="#fdd18b"/><stop offset=".101563" stop-color="#fdd089"/><stop offset=".105469" stop-color="#fdcf88"/><stop offset=".109375" stop-color="#fdce87"/><stop offset=".113281" stop-color="#fdcd85"/><stop offset=".117188" stop-color="#fccc84"/><stop offset=".121094" stop-color="#fccc82"/><stop offset=".125" stop-color="#fccb81"/><stop offset=".128906" stop-color="#fcca80"/><stop offset=".132813" stop-color="#fcca7f"/><stop offset=".136719" stop-color="#fcc97d"/><stop offset=".140625" stop-color="#fcc87c"/><stop offset=".144531" stop-color="#fcc77b"/><stop offset=".148438" stop-color="#fcc67a"/><stop offset=".152344" stop-color="#fbc578"/><stop offset=".15625" stop-color="#fbc477"/><stop offset=".160156" stop-color="#fbc376"/><stop offset=".164063" stop-color="#fbc375"/><stop offset=".167969" stop-color="#fbc273"/><stop offset=".171875" stop-color="#fbc172"/><stop offset=".175781" stop-color="#fbc071"/><stop offset=".179688" stop-color="#fbc070"/><stop offset=".183594" stop-color="#fabf6f"/><stop offset=".1875" stop-color="#fabe6d"/><stop offset=".191406" stop-color="#fabd6c"/><stop offset=".195313" stop-color="#fabd6b"/><stop offset=".199219" stop-color="#fabc6a"/><stop offset=".203125" stop-color="#fabb68"/><stop offset=".207031" stop-color="#faba67"/><stop offset=".210938" stop-color="#faba66"/><stop offset=".214844" stop-color="#f9b965"/><stop offset=".21875" stop-color="#f9b864"/><stop offset=".222656" stop-color="#f9b863"/><stop offset=".226563" stop-color="#f9b762"/><stop offset=".230469" stop-color="#f9b661"/><stop offset=".234375" stop-color="#f9b560"/><stop offset=".238281" stop-color="#f9b55e"/><stop offset=".242188" stop-color="#f9b45d"/><stop offset=".246094" stop-color="#f9b45c"/><stop offset=".25" stop-color="#f9b35c"/><stop offset=".253906" stop-color="#f9b35a"/><stop offset=".257813" stop-color="#f9b259"/><stop offset=".261719" stop-color="#f8b158"/><stop offset=".265625" stop-color="#f8b057"/><stop offset=".269531" stop-color="#f8b056"/><stop offset=".273438" stop-color="#f8af55"/><stop offset=".277344" stop-color="#f8ae54"/><stop offset=".28125" stop-color="#f8ad53"/><stop offset=".285156" stop-color="#f8ad52"/><stop offset=".289063" stop-color="#f8ac51"/><stop offset=".292969" stop-color="#f7ac50"/><stop offset=".296875" stop-color="#f7ab4f"/><stop offset=".300781" stop-color="#f7ab4e"/><stop offset=".304688" stop-color="#f7aa4d"/><stop offset=".308594" stop-color="#f7a94c"/><stop offset=".3125" stop-color="#f7a94c"/><stop offset=".316406" stop-color="#f7a84b"/><stop offset=".320313" stop-color="#f7a74a"/><stop offset=".324219" stop-color="#f7a749"/><stop offset=".328125" stop-color="#f7a648"/><stop offset=".332031" stop-color="#f7a647"/><stop offset=".335938" stop-color="#f7a546"/><stop offset=".339844" stop-color="#f6a445"/><stop offset=".34375" stop-color="#f6a444"/><stop offset=".347656" stop-color="#f6a343"/><stop offset=".351563" stop-color="#f6a242"/><stop offset=".355469" stop-color="#f6a241"/><stop offset=".359375" stop-color="#f6a141"/><stop offset=".363281" stop-color="#f6a140"/><stop offset=".367188" stop-color="#f6a03f"/><stop offset=".371094" stop-color="#f5a03e"/><stop offset=".375" stop-color="#f59f3e"/><stop offset=".378906" stop-color="#f59f3d"/><stop offset=".382813" stop-color="#f59f3c"/><stop offset=".386719" stop-color="#f59e3b"/><stop offset=".390625" stop-color="#f59e3a"/><stop offset=".394531" stop-color="#f59d39"/><stop offset=".398438" stop-color="#f59d38"/><stop offset=".402344" stop-color="#f59c38"/><stop offset=".40625" stop-color="#f59c37"/><stop offset=".410156" stop-color="#f59b36"/><stop offset=".414063" stop-color="#f59a35"/><stop offset=".421875" stop-color="#f49a35"/><stop offset=".425781" stop-color="#f49934"/><stop offset=".429688" stop-color="#f49933"/><stop offset=".433594" stop-color="#f49833"/><stop offset=".4375" stop-color="#f49832"/><stop offset=".441406" stop-color="#f49731"/><stop offset=".445313" stop-color="#f49730"/><stop offset=".449219" stop-color="#f49630"/><stop offset=".453125" stop-color="#f4962f"/><stop offset=".457031" stop-color="#f4952e"/><stop offset=".460938" stop-color="#f4942d"/><stop offset=".46875" stop-color="#f3942d"/><stop offset=".472656" stop-color="#f3932c"/><stop offset=".476563" stop-color="#f3932c"/><stop offset=".480469" stop-color="#f3932b"/><stop offset=".484375" stop-color="#f3922a"/><stop offset=".488281" stop-color="#f39229"/><stop offset=".492188" stop-color="#f39128"/><stop offset=".5" stop-color="#f39128"/><stop offset=".507813" stop-color="#f39027"/><stop offset=".511719" stop-color="#f38f26"/><stop offset=".515625" stop-color="#f28f25"/><stop offset=".519531" stop-color="#f28e24"/><stop offset=".523438" stop-color="#f28e24"/><stop offset=".527344" stop-color="#f28e23"/><stop offset=".53125" stop-color="#f28d23"/><stop offset=".535156" stop-color="#f28d22"/><stop offset=".539063" stop-color="#f28d22"/><stop offset=".542969" stop-color="#f28d21"/><stop offset=".546875" stop-color="#f28c21"/><stop offset=".550781" stop-color="#f28c20"/><stop offset=".554688" stop-color="#f28c20"/><stop offset=".558594" stop-color="#f28b1f"/><stop offset=".5625" stop-color="#f28b1f"/><stop offset=".566406" stop-color="#f28a1e"/><stop offset=".570313" stop-color="#f28a1e"/><stop offset=".574219" stop-color="#f28a1d"/><stop offset=".578125" stop-color="#f1891d"/><stop offset=".582031" stop-color="#f1891c"/><stop offset=".585938" stop-color="#f1891c"/><stop offset=".589844" stop-color="#f1891b"/><stop offset=".59375" stop-color="#f1881b"/><stop offset=".597656" stop-color="#f1881a"/><stop offset=".601563" stop-color="#f1881a"/><stop offset=".605469" stop-color="#f18819"/><stop offset=".609375" stop-color="#f18719"/><stop offset=".613281" stop-color="#f18718"/><stop offset=".617188" stop-color="#f18718"/><stop offset=".621094" stop-color="#f18717"/><stop offset=".625" stop-color="#f18617"/><stop offset=".628906" stop-color="#f18616"/><stop offset=".636719" stop-color="#f18615"/><stop offset=".644531" stop-color="#f18514"/><stop offset=".652344" stop-color="#f18513"/><stop offset=".660156" stop-color="#f18412"/><stop offset=".667969" stop-color="#f18411"/><stop offset=".675781" stop-color="#f08310"/><stop offset=".683594" stop-color="#f0830f"/><stop offset=".691406" stop-color="#f0830e"/><stop offset=".699219" stop-color="#f0830d"/><stop offset=".707031" stop-color="#f0820c"/><stop offset=".714844" stop-color="#f0820b"/><stop offset=".722656" stop-color="#f0810a"/><stop offset=".730469" stop-color="#f08109"/><stop offset=".746094" stop-color="#f08108"/><stop offset=".753906" stop-color="#f08008"/><stop offset=".757813" stop-color="#f08007"/><stop offset=".761719" stop-color="#f08007"/><stop offset=".765625" stop-color="#f08006"/><stop offset=".769531" stop-color="#f08006"/><stop offset=".773438" stop-color="#f08005"/><stop offset=".777344" stop-color="#f08005"/><stop offset=".789063" stop-color="#f07f04"/><stop offset=".800781" stop-color="#f07f03"/><stop offset=".8125" stop-color="#f07e02"/><stop offset=".824219" stop-color="#f07e02"/><stop offset=".832031" stop-color="#f07e01"/><stop offset=".839844" stop-color="#f07e01"/><stop offset=".847656" stop-color="#f07e00"/><stop offset=".863281" stop-color="#ef7e00"/><stop offset=".878906" stop-color="#ef7d00"/><stop offset="1" stop-color="#ef7d00"/></radialGradient><symbol id="f" overflow="visible"/><symbol id="g" overflow="visible"/><g transform="translate(129.01799 268.71157)"><g transform="matrix(.35277778 0 0 .35277778 -549.40326 -317.81607)"><use height="100%" width="100%" x="297.63449" xlink:href="#g" y="298.6156"/><use height="100%" width="100%" x="541.28699" xlink:href="#f" y="298.57361"/><use height="100%" width="100%" x="541.28387" xlink:href="#f" y="452.5351"/><use height="100%" width="100%" x="324.03885" xlink:href="#f" y="466.53159"/><use height="100%" width="100%" x="479.89035" xlink:href="#f" y="466.53159"/><use height="100%" width="100%" x="541.29645" xlink:href="#f" y="466.53159"/></g><g clip-path="url(#a)" transform="matrix(.35277776 0 0 .35277776 -483.8281 -282.55121)"><path d="m1047.1719 93.15625c6.0508 0 10.6133-4.71875 10.6133-10.976562 0-6.257813-4.5625-10.980469-10.6133-10.980469-6.0547 0-10.6211 4.722656-10.6211 10.980469 0 6.261718 4.5664 10.976562 10.6211 10.976562m0-27.269531c9.1875 0 16.3828 7.15625 16.3828 16.292969 0 9.066406-7.1953 16.167968-16.3828 16.167968-9.1914 0-16.3946-7.101562-16.3946-16.167968 0-9.136719 7.2032-16.292969 16.3946-16.292969" fill="#bf0a19"/></g><path d="m-91.045906-248.05478h-2.036728v-11.18967c0-.44786.552592-.9412 1.506185-.9412h.530543zm0 0" fill="#bf0a19"/><g clip-path="url(#b)" transform="matrix(.35277776 0 0 .35277776 -483.8281 -282.55121)"><path d="m1128.7578 93.648438c4.9883 0 7.7383-3.574219 7.7383-8.300782 0-4.726562-3.0508-7.972656-7.7383-7.972656-4.8047 0-7.7344 3.246094-7.7344 7.96875s3.0079 8.304688 7.7344 8.304688m7.9297-17.40625v-.308594c0-1.625 2.0898-2.695313 4.1563-2.695313h1.4257v24.546875h-5.5781v-2.921875s-3.2148 3.570313-8.6289 3.570313c-8.4531 0-12.4492-6.929688-12.4492-13.089844 0-6.210937 4-12.753906 12.4453-12.753906 5.418 0 8.6289 3.652344 8.6289 3.652344" fill="#bf0a19"/></g><path d="m-102.67791-256.82737v1.64538c-.22323-.011-.48644-.0193-.72898-.0193-1.5131 0-2.2903.22738-2.2903.22738v6.91362h-2.03673v-7.16718c0-.71107 1.36977-1.6123 4.44416-1.6123 0 0 .41342.006.61185.0124" fill="#bf0a19"/><path d="m-101.93513-248.05478v-11.18967c0-.44786.55259-.9412 1.50618-.9412h.530544v6.44922l3.129527-2.97105 2.616905-.003-3.972912 3.70692 4.677057 4.94853h-2.575525l-3.460256-3.66007-.414796.39274v3.26733zm0 0" fill="#bf0a19"/><g clip-path="url(#c)" transform="matrix(.35277776 0 0 .35277776 -483.8281 -282.55121)"><g clip-path="url(#d)"><path d="m993.88281 48.441406 30.70309-22.390625 22.0039 30.171875-30.7031 22.390625zm0 0" fill="url(#e)"/></g></g><path d="m-116.84278-263.18013c-2.12079 0-7.39729 3.01515-7.40279 9.66005 0 .004.004.008.008.008.006 0 .01-.004.01-.008.4837-3.29902 2.19936-5.28615 3.87918-6.71518 2.02435-1.72255 5.68167-2.58658 6.03582-2.69544.0551-.0165.0868-.073.0854-.12127 0-.0703-.0551-.12816-.12816-.12816zm0 0" fill="#bf0a19"/></g></svg>