<svg xmlns="http://www.w3.org/2000/svg" xmlns:xlink="http://www.w3.org/1999/xlink" viewBox="0 0 416 94"><defs><style>.cls-1{isolation:isolate;}.cls-2{fill:#0047ba;}.cls-3{mix-blend-mode:multiply;fill:url(#linear-gradient);}</style><linearGradient id="linear-gradient" x1="-88.18" y1="78.82" x2="296.48" y2="78.82" gradientTransform="translate(147.75 -60.26) rotate(25.16)" gradientUnits="userSpaceOnUse"><stop offset="0" stop-color="#fff"/><stop offset="0.06" stop-color="#c8d3e2"/><stop offset="0.11" stop-color="#98adc8"/><stop offset="0.17" stop-color="#6f8cb2"/><stop offset="0.23" stop-color="#4d71a0"/><stop offset="0.3" stop-color="#335d92"/><stop offset="0.36" stop-color="#214e88"/><stop offset="0.42" stop-color="#164582"/><stop offset="0.5" stop-color="#124280"/><stop offset="0.68" stop-color="#acbdd2"/><stop offset="0.88" stop-color="#124280"/><stop offset="1" stop-color="#fff"/></linearGradient></defs><g class="cls-1"><g id="Layer_1" data-name="Layer 1"><path class="cls-2" d="M364.57,41.17c5.58,11.29,5.28,17.89-2.47,27.08-5.86,7-19.66,23.16-19.66,23.16L320,91.33s23.33-26.62,26.89-30.46,4.07-7.32,2-11.7c-2.57-5.48-12.75-22.61-12.75-22.61l20.85.07S362.22,36.43,364.57,41.17Zm11.14,6.06c-4.42,5.54-8.68,12.17-2.9,23.47,5.13,10,10.51,20.86,10.51,20.86l20.63.08S392,70,389.38,64.52s-.67-8.91,4-14.1c5.37-6,21.29-23.58,21.29-23.58l-21.78-.08S381.09,40.5,375.71,47.23ZM168.48,4.52l-18-.07L138,90.67l18,.06Zm-5.09,86.24,18,.07,9.85-68.08-18-.07ZM193.91,4.61l-18-.06L174,17.77l18,.07ZM1.6,82.9a51.59,51.59,0,0,0,25.72,8.59c22.09,1.36,35.79-7.53,37.81-25,2-17.21-7.52-24.29-22.54-28.36C33,35.57,28.85,32,29.88,26.68,32.13,15,53.5,18.6,64.48,25.56L68.37,9.71A50.75,50.75,0,0,0,42.85,2.94C19,2.85,11.28,18.35,10.43,28.73,9.59,38.79,14.62,48.91,30.26,53c11.55,3,17.52,5.53,16,13.24s-10.4,9.24-19.44,7.8A51.65,51.65,0,0,1,5.09,65.68S2.65,77.77,1.6,82.9Zm103.88-59A36,36,0,0,0,79.4,35,36.69,36.69,0,0,0,68.89,61.45c.53,17.42,13,30.24,32.32,30.31a36,36,0,0,0,26.08-11.1,36.73,36.73,0,0,0,10.51-26.5C137.27,36.75,124.83,23.92,105.48,23.85Zm-4,52.64c-8.65,0-14.72-5.45-15-15.36a24.34,24.34,0,0,1,6.64-16.78,16.76,16.76,0,0,1,12-5.23c8.66,0,14.71,5.45,15,15.36a24.28,24.28,0,0,1-6.64,16.78A16.63,16.63,0,0,1,101.53,76.49ZM259,61.18l0,.18c-1.23,7.4-3.94,14.9-9.21,20.31-6.61,6.79-15.06,10.58-26.17,10.54-19.36-.07-31.8-12.9-32.32-30.31A36.67,36.67,0,0,1,201.8,35.4a36,36,0,0,1,26.08-11.1A33.68,33.68,0,0,1,245.61,29l3.56-24.14,18,.07Zm-17.74-1.65c1.23-7.47,2.07-13.8,2.07-13.8a23.12,23.12,0,0,0-15.79-6,16.65,16.65,0,0,0-12,5.23,23.93,23.93,0,0,0-6.64,16.61c.3,9.9,6.36,15.32,15,15.36S239.15,72.38,241.28,59.53Zm59.61-35a35.93,35.93,0,0,0-26.07,11.11,36.68,36.68,0,0,0-10.52,26.5c.53,17.41,13,30.24,32.32,30.31A36,36,0,0,0,322.7,81.37a36.73,36.73,0,0,0,10.51-26.5C332.69,37.46,320.25,24.63,300.89,24.56ZM296.94,77.2c-8.65,0-14.71-5.45-15-15.36a24.33,24.33,0,0,1,6.63-16.78,16.71,16.71,0,0,1,12-5.22c8.66,0,14.71,5.44,15,15.35A24.35,24.35,0,0,1,309,72,16.68,16.68,0,0,1,296.94,77.2Z"/><path class="cls-3" d="M364.57,41.17c5.58,11.29,5.28,17.89-2.47,27.08-5.86,7-19.66,23.16-19.66,23.16L320,91.33s23.33-26.62,26.89-30.46,4.07-7.32,2-11.7c-2.57-5.48-12.75-22.61-12.75-22.61l20.85.07S362.22,36.43,364.57,41.17Zm11.14,6.06c-4.42,5.54-8.68,12.17-2.9,23.47,5.13,10,10.51,20.86,10.51,20.86l20.63.08S392,70,389.38,64.52s-.67-8.91,4-14.1c5.37-6,21.29-23.58,21.29-23.58l-21.78-.08S381.09,40.5,375.71,47.23ZM168.48,4.52l-18-.07L138,90.67l18,.06Zm-5.09,86.24,18,.07,9.85-68.08-18-.07ZM193.91,4.61l-18-.06L174,17.77l18,.07ZM1.6,82.9a51.59,51.59,0,0,0,25.72,8.59c22.09,1.36,35.79-7.53,37.81-25,2-17.21-7.52-24.29-22.54-28.36C33,35.57,28.85,32,29.88,26.68,32.13,15,53.5,18.6,64.48,25.56L68.37,9.71A50.75,50.75,0,0,0,42.85,2.94C19,2.85,11.28,18.35,10.43,28.73,9.59,38.79,14.62,48.91,30.26,53c11.55,3,17.52,5.53,16,13.24s-10.4,9.24-19.44,7.8A51.65,51.65,0,0,1,5.09,65.68S2.65,77.77,1.6,82.9Zm103.88-59A36,36,0,0,0,79.4,35,36.69,36.69,0,0,0,68.89,61.45c.53,17.42,13,30.24,32.32,30.31a36,36,0,0,0,26.08-11.1,36.73,36.73,0,0,0,10.51-26.5C137.27,36.75,124.83,23.92,105.48,23.85Zm-4,52.64c-8.65,0-14.72-5.45-15-15.36a24.34,24.34,0,0,1,6.64-16.78,16.76,16.76,0,0,1,12-5.23c8.66,0,14.71,5.45,15,15.36a24.28,24.28,0,0,1-6.64,16.78A16.63,16.63,0,0,1,101.53,76.49ZM259,61.18l0,.18c-1.23,7.4-3.94,14.9-9.21,20.31-6.61,6.79-15.06,10.58-26.17,10.54-19.36-.07-31.8-12.9-32.32-30.31A36.67,36.67,0,0,1,201.8,35.4a36,36,0,0,1,26.08-11.1A33.68,33.68,0,0,1,245.61,29l3.56-24.14,18,.07Zm-17.74-1.65c1.23-7.47,2.07-13.8,2.07-13.8a23.12,23.12,0,0,0-15.79-6,16.65,16.65,0,0,0-12,5.23,23.93,23.93,0,0,0-6.64,16.61c.3,9.9,6.36,15.32,15,15.36S239.15,72.38,241.28,59.53Zm59.61-35a35.93,35.93,0,0,0-26.07,11.11,36.68,36.68,0,0,0-10.52,26.5c.53,17.41,13,30.24,32.32,30.31A36,36,0,0,0,322.7,81.37a36.73,36.73,0,0,0,10.51-26.5C332.69,37.46,320.25,24.63,300.89,24.56ZM296.94,77.2c-8.65,0-14.71-5.45-15-15.36a24.33,24.33,0,0,1,6.63-16.78,16.71,16.71,0,0,1,12-5.22c8.66,0,14.71,5.44,15,15.35A24.35,24.35,0,0,1,309,72,16.68,16.68,0,0,1,296.94,77.2Z"/></g></g></svg>